<?xml version="1.0" encoding="iso-8859-1"?>
<!-- Generator: Adobe Illustrator 19.0.0, SVG Export Plug-In . SVG Version: 6.00 Build 0)  -->
<svg version="1.1" id="Layer_1" xmlns="http://www.w3.org/2000/svg" xmlns:xlink="http://www.w3.org/1999/xlink" x="0px" y="0px"
	 viewBox="0 0 512 512" style="enable-background:new 0 0 512 512;" xml:space="preserve">
<circle style="fill:#C2D5D8;" cx="256" cy="256" r="256"/>
<path style="fill:#ACBCBF;" d="M492.968,352.892c-0.352-0.876-0.672-1.76-1.072-2.596c-0.492-1.38-1.04-2.724-1.648-4.02
	c-0.492-1.392-1.044-2.744-1.656-4.048c-0.492-1.38-1.04-2.728-1.648-4.024c-0.484-1.368-1.032-2.7-1.632-3.984
	c-0.384-1.084-0.82-2.132-1.28-3.172c-0.744-2.916-1.72-5.7-2.944-8.312c-0.492-1.384-1.04-2.728-1.648-4.028
	c-0.5-1.384-1.048-2.736-1.656-4.04c-0.492-1.376-1.04-2.724-1.648-4.024c-0.496-1.388-1.048-2.74-1.656-4.044
	c-0.488-1.368-1.032-2.704-1.636-3.992c-0.496-1.392-1.044-2.748-1.66-4.056c-0.496-1.388-1.04-2.74-1.652-4.04
	c-0.496-1.38-1.04-2.728-1.652-4.024c-0.492-1.384-1.04-2.736-1.648-4.04c-0.5-1.384-1.044-2.736-1.656-4.04
	c-0.492-1.376-1.04-2.72-1.648-4.016c-0.492-1.372-1.032-2.712-1.64-4c-0.492-1.396-1.04-2.752-1.656-4.06
	c-0.496-1.384-1.04-2.74-1.656-4.04c-0.492-1.388-1.04-2.732-1.652-4.028c-0.492-1.384-1.036-2.732-1.648-4.032
	c-0.38-1.068-0.812-2.096-1.26-3.112c-0.752-2.916-1.728-5.708-2.952-8.328c-0.488-1.364-1.032-2.696-1.632-3.988
	c-0.5-1.4-1.056-2.764-1.672-4.084c-0.492-1.376-1.04-2.724-1.648-4.024c-0.492-1.38-1.04-2.728-1.652-4.028
	c-0.492-1.38-1.036-2.728-1.648-4.028c-0.496-1.384-1.04-2.736-1.652-4.04c-0.492-1.38-1.044-2.728-1.648-4.028
	c-0.5-1.384-1.048-2.732-1.656-4.036c-0.492-1.364-1.032-2.692-1.632-3.98c-0.5-1.396-1.048-2.76-1.664-4.076
	c-0.5-1.38-1.04-2.728-1.652-4.032c-0.492-1.38-1.044-2.728-1.648-4.024c-0.496-1.388-1.044-2.74-1.66-4.044
	c-0.492-1.376-1.04-2.72-1.644-4.016c-0.496-1.388-1.044-2.74-1.656-4.044c-0.376-1.052-0.8-2.064-1.248-3.068
	c-0.752-2.928-1.736-5.732-2.964-8.364c-0.496-1.384-1.044-2.736-1.656-4.044c-0.492-1.376-1.044-2.724-1.648-4.024
	c-0.496-1.38-1.04-2.724-1.648-4.028c-0.496-1.38-1.044-2.732-1.656-4.036c-0.492-1.376-1.04-2.724-1.644-4.024
	c-0.5-1.384-1.048-2.74-1.656-4.044c-0.492-1.368-1.036-2.7-1.64-3.992c-0.492-1.392-1.04-2.748-1.656-4.056
	c-0.5-1.384-1.04-2.736-1.656-4.036c-0.492-1.38-1.04-2.728-1.648-4.028c-0.492-1.384-1.04-2.732-1.652-4.036
	c-0.496-1.384-1.044-2.732-1.656-4.036c-0.492-1.376-1.036-2.72-1.648-4.02c-0.488-1.372-1.032-2.712-1.64-4.004
	c-0.492-1.392-1.04-2.748-1.656-4.06c-0.496-1.384-1.044-2.736-1.652-4.036c-0.492-1.38-1.044-2.732-1.656-4.032
	c-6.076-16.976-21.364-28.028-41.4-28.028h-16H256h-96c-24.436,0-41.844,16.428-44,40l-12,172l-20,12l-8,64
	c0,3.208,0.5,6.084,1.336,8.648c0.504,2.688,1.368,5.12,2.484,7.268c0.456,1.428,1.004,2.776,1.652,4.024
	c0.456,1.424,1.004,2.772,1.652,4.024c0.456,1.42,1.004,2.772,1.648,4.016c0.452,1.42,1,2.756,1.64,4
	c0.456,1.436,1.008,2.78,1.656,4.032c0.452,1.428,1.004,2.776,1.652,4.024c0.452,1.428,1,2.768,1.648,4.008
	c0.448,1.424,1,2.756,1.636,3.996c0.452,1.44,1.008,2.788,1.66,4.044c0.448,1.428,1.004,2.772,1.652,4.016
	c0.448,1.432,1.004,2.768,1.648,4.016c0.444,1.42,1,2.752,1.64,3.992c0.448,1.444,1.008,2.788,1.656,4.044
	c0.448,1.432,1.004,2.776,1.652,4.02c0.448,1.428,1.004,2.764,1.648,4.008c0.444,1.428,1,2.764,1.64,4
	c0.444,1.444,1.008,2.78,1.652,4.028c0.04,0.124,0.088,0.248,0.132,0.372c0.508,2.704,1.376,5.148,2.5,7.312
	c0.456,1.42,1,2.768,1.648,4.008c0.456,1.428,1.004,2.78,1.652,4.032c0.4,1.244,0.896,2.4,1.44,3.508
	c40.4,26.664,88.772,42.224,140.796,42.224C363.084,512,454.756,446.228,492.968,352.892z"/>
<path style="fill:#CC584C;" d="M428,286.332l-20-12l-12-156c-2.156-23.572-19.564-40-44-40h-96h-96c-24.436,0-41.844,16.428-44,40
	l-12,156l-20,12l-8,80c0,16,12,24,20,24h160h160c8,0,20-8,20-24L428,286.332z"/>
<g>
	<path style="fill:#BF5347;" d="M428,286.332l-20-12l-12-156c-2.156-23.572-19.564-40-44-40h-16c24.436,0,41.844,16.428,44,40
		l12,156l20,12l8,80c0,16-12,24-20,24h16c8,0,20-8,20-24L428,286.332z"/>
	<path style="fill:#BF5347;" d="M436,366.332l-8-80l-20-12c0,0-114,8-152,8s-152-8-152-8l-20,12l-8,80H436z"/>
</g>
<polygon style="fill:#B34E42;" points="436,366.332 428,286.332 408,274.332 392,274.332 412,286.332 420,366.332 "/>
<path style="fill:#263740;" d="M256,266.332c-45.34,0-68.508-4.416-108.236-29.212c-2.508-1.568-3.948-4.392-3.744-7.34
	c2.024-29.148,9.904-91.888,12-120.04c0.312-4.184,3.804-7.404,7.976-7.404c0.076,0,0.148,0,0.224,0.004
	c15.64,0.424,28.608,0.608,43.364,0.608c6.576,0,13.084-0.032,20.124-0.072c8.348-0.044,17.444-0.084,28.292-0.084
	c10.852,0,19.952,0.048,28.304,0.088c7.052,0.036,13.564,0.068,20.14,0.068c14.748,0,27.708-0.612,43.336-0.612
	c0.076,0,0.148,0,0.224,0c4.172,0,7.66,3.22,7.972,7.404c2.1,28.156,9.976,90.872,12.004,120.04
	c0.208,2.956-1.248,5.784-3.752,7.348C324.32,261.92,301.176,266.332,256,266.332z"/>
<path style="fill:#C2E2F2;" d="M256,258.332c-44.38,0-65.628-4.048-104-28c1.048-15.048,3.7-39.452,6.268-63.052
	c2.424-22.288,4.716-43.348,5.732-56.948c15.716,0.428,28.752,0.612,43.584,0.612c6.588,0,13.108-0.032,20.168-0.072
	c8.352-0.044,17.428-0.36,28.252-0.36c10.836,0,19.916-0.18,28.26-0.18h0.452c6.892,0,13.276,0.34,19.728,0.34
	c7.328,0,14.22-0.012,21.208-0.168c7.084-0.156,14.26-0.244,22.128-0.244c1.236,13.596,3.524,34.668,5.944,56.944
	c2.572,23.608,5.228,48.04,6.272,63.108C321.444,254.268,300.22,258.332,256,258.332z"/>
<g>
	<path style="fill:#242424;" d="M112,390.332v17.084c0,12.828,10.752,22.916,24,22.916s24-10.732,24-23.56v-16.44L112,390.332
		L112,390.332z"/>
	<path style="fill:#242424;" d="M352,390.332v17.084c0,12.828,10.752,22.916,24,22.916s24-10.732,24-23.56v-16.44L352,390.332
		L352,390.332z"/>
</g>
<g>
	<path style="fill:#F5F5F5;" d="M192,154.332c-1.024,0-2.048-0.392-2.828-1.172c-1.564-1.564-1.564-4.092,0-5.656l20-20
		c1.564-1.564,4.092-1.564,5.656,0c1.564,1.564,1.564,4.092,0,5.656l-20,20C194.048,153.94,193.024,154.332,192,154.332z"/>
	<path style="fill:#F5F5F5;" d="M196,182.332c-1.024,0-2.048-0.392-2.828-1.172c-1.564-1.564-1.564-4.092,0-5.656l48-48
		c1.564-1.564,4.092-1.564,5.656,0c1.564,1.564,1.564,4.092,0,5.656l-48,48C198.048,181.94,197.024,182.332,196,182.332z"/>
</g>
<path style="fill:#FFD464;" d="M152,334.332c0,8.812-7.156,16-16,16s-16-7.188-16-16c0-8.844,7.156-16,16-16
	S152,325.488,152,334.332z"/>
<path style="fill:#263740;" d="M136,354.332c-11.028,0-20-8.972-20-20s8.972-20,20-20s20,8.972,20,20S147.028,354.332,136,354.332z
	 M136,322.332c-6.616,0-12,5.388-12,12s5.384,12,12,12s12-5.388,12-12S142.616,322.332,136,322.332z"/>
<path style="fill:#FFD464;" d="M392,334.332c0,8.812-7.156,16-16,16s-16-7.188-16-16c0-8.844,7.156-16,16-16
	S392,325.488,392,334.332z"/>
<g>
	<path style="fill:#263740;" d="M376,354.332c-11.028,0-20-8.972-20-20s8.972-20,20-20s20,8.972,20,20S387.028,354.332,376,354.332z
		 M376,322.332c-6.616,0-12,5.388-12,12s5.384,12,12,12s12-5.388,12-12S382.616,322.332,376,322.332z"/>
	<path style="fill:#263740;" d="M324,214.332c-17.644,0-32,14.356-32,32c0,4.968,1.236,9.872,3.464,14.324
		c2.752-0.332,5.432-0.744,8.084-1.196c-0.076-0.46-0.2-0.92-0.436-1.352c-2.032-3.596-3.112-7.668-3.112-11.776
		c0-13.236,10.764-24,24-24c11.744,0,21.684,8.408,23.632,19.988c0.076,0.448,0.256,0.844,0.468,1.224
		c2.32-1.24,4.692-2.556,7.116-3.96C352.064,224.876,339.176,214.332,324,214.332z"/>
	<path style="fill:#263740;" d="M332,334.332c0,13.2-10.8,24-24,24H204c-13.2,0-24-10.8-24-24v-8c0-13.2,10.8-24,24-24h104
		c13.2,0,24,10.8,24,24V334.332z"/>
</g>
<path style="fill:#242424;" d="M204,350.332c-8.824,0-16-7.176-16-16v-8c0-8.824,7.176-16,16-16h104c8.824,0,16,7.176,16,16v8
	c0,8.824-7.176,16-16,16H204z"/>
<g>
	<path style="fill:#263740;" d="M190.228,342.332h131.544c1.38-2.364,2.228-5.076,2.228-8H188
		C188,337.256,188.848,339.968,190.228,342.332z"/>
	<path style="fill:#263740;" d="M188,326.332h136c0-2.924-0.848-5.636-2.228-8H190.224C188.848,320.696,188,323.408,188,326.332z"/>
	<path style="fill:#263740;" d="M444,382.332c0,4.404-3.6,8-8,8H76c-4.4,0-8-3.596-8-8v-8c0-4.404,3.6-8,8-8h360c4.4,0,8,3.596,8,8
		V382.332z"/>
</g>
<g>
	<rect x="176" y="362.32" style="fill:#354D59;" width="8" height="32"/>
	<rect x="328" y="362.32" style="fill:#354D59;" width="8" height="32"/>
</g>
<g>
</g>
<g>
</g>
<g>
</g>
<g>
</g>
<g>
</g>
<g>
</g>
<g>
</g>
<g>
</g>
<g>
</g>
<g>
</g>
<g>
</g>
<g>
</g>
<g>
</g>
<g>
</g>
<g>
</g>
</svg>
